<?xml version="1.0" encoding="UTF-8"?>
<svg id="Layer_2" data-name="Layer 2" xmlns="http://www.w3.org/2000/svg" viewBox="0 0 298.11 37.54">
  <defs>
    <style>
      .cls-1 {
        fill: #f15634;
      }

      .cls-1, .cls-2 {
        stroke-width: 0px;
      }

      .cls-2 {
        fill: #fff;
      }
    </style>
  </defs>
  <g id="Layer_1-2" data-name="Layer 1">
    <g>
      <path class="cls-2" d="M2.09,29.2c-1.39-2.74-2.09-6.02-2.09-9.85s.71-7.3,2.14-10.19,3.47-5.12,6.12-6.69C10.91.89,14.03.1,17.62.1c4.88,0,8.69,1.23,11.42,3.69,2.74,2.46,4.21,5.81,4.42,10.06l-6.01.73c-.21-2.72-1.13-4.91-2.77-6.56-1.64-1.66-3.96-2.48-6.95-2.48-3.31,0-5.9,1.21-7.76,3.63-1.86,2.42-2.8,5.76-2.8,10.01s.98,7.18,2.95,9.41c1.97,2.23,4.59,3.35,7.87,3.35,2.89,0,5.09-.69,6.59-2.07,1.5-1.38,2.51-3.15,3.03-5.31l5.96,1.31c-.59,3.24-2.2,5.99-4.81,8.26-2.61,2.27-6.38,3.4-11.29,3.4-3.59,0-6.7-.71-9.33-2.12-2.63-1.41-4.64-3.48-6.04-6.22Z"/>
      <path class="cls-2" d="M62.84,18.25v18.61h-6.48v-16.1c0-1.71-.4-3.03-1.2-3.97s-1.93-1.41-3.4-1.41-2.64.47-3.74,1.41c-1.1.94-1.96,2.31-2.59,4.1-.63,1.8-.94,3.91-.94,6.35v9.62h-6.48V0h6.48v6.85c0,2.61-.14,6.06-.42,10.35h1.1c1.67-4.98,4.83-7.48,9.46-7.48,2.54,0,4.55.74,6.01,2.22,1.46,1.48,2.2,3.58,2.2,6.3Z"/>
      <path class="cls-2" d="M94.63,37.04c-.84.33-1.67.5-2.51.5-1.64,0-2.9-.44-3.79-1.31-.89-.87-1.33-2.18-1.33-3.92,0-.77.07-1.5.21-2.2h-1.1c-.63,2.51-1.71,4.37-3.24,5.59-1.53,1.22-3.61,1.83-6.22,1.83-2.86,0-5.1-.72-6.72-2.17-1.62-1.45-2.43-3.34-2.43-5.67,0-2.89,1.18-5.07,3.53-6.53,2.35-1.46,5.5-2.2,9.44-2.2,1.88,0,3.66.14,5.33.42v-1.93c0-3.28-1.85-4.91-5.54-4.91-1.67,0-2.98.41-3.92,1.23-.94.82-1.6,2.01-1.99,3.58l-5.65-1.31c.38-2.58,1.66-4.61,3.84-6.09,2.18-1.48,4.99-2.22,8.44-2.22s6.37.82,8.34,2.46c1.97,1.64,2.95,3.96,2.95,6.95v10.35c0,.94.14,1.67.42,2.2.28.52.7.78,1.25.78.38,0,.84-.16,1.36-.47l1.25,3.97c-.45.38-1.1.74-1.93,1.07ZM82.13,24.68c-2.54,0-4.5.38-5.86,1.15-1.36.77-2.04,1.92-2.04,3.45,0,1.08.36,1.93,1.07,2.56.71.63,1.68.94,2.9.94,4.43,0,6.92-2.63,7.48-7.89-1.12-.14-2.3-.21-3.55-.21Z"/>
      <path class="cls-2" d="M115.39,36.13c-1.57.94-3.5,1.41-5.8,1.41-2.72,0-4.78-.64-6.2-1.91-1.41-1.27-2.12-3.08-2.12-5.41v-15.11h-3.35v-4.71h4.08l2.2-7.53h3.61v7.53h9.57v4.71h-9.57v13.91c0,1.25.32,2.13.97,2.61.64.49,1.52.73,2.64.73s2.14-.33,3.08-.99c.94-.66,1.71-1.41,2.3-2.25l2.09,3.76c-.77,1.22-1.93,2.3-3.5,3.24Z"/>
      <path class="cls-2" d="M138.29,36.13c-1.57.94-3.5,1.41-5.8,1.41-2.72,0-4.78-.64-6.2-1.91-1.41-1.27-2.12-3.08-2.12-5.41v-15.11h-3.35v-4.71h4.08l2.2-7.53h3.61v7.53h9.57v4.71h-9.57v13.91c0,1.25.32,2.13.97,2.61.64.49,1.52.73,2.64.73s2.14-.33,3.08-.99c.94-.66,1.71-1.41,2.3-2.25l2.09,3.76c-.77,1.22-1.93,2.3-3.5,3.24Z"/>
      <path class="cls-2" d="M169.03,23.16c0,1.05-.03,1.85-.1,2.4h-18.66c.24,2.27.94,4,2.09,5.2,1.15,1.2,2.68,1.8,4.6,1.8,3.14,0,5.28-1.45,6.43-4.34l5.18,1.31c-.59,2.44-1.91,4.38-3.95,5.83-2.04,1.45-4.73,2.17-8.08,2.17-4.15,0-7.36-1.17-9.65-3.5-2.28-2.33-3.42-5.63-3.42-9.88,0-2.89.53-5.42,1.59-7.58,1.06-2.16,2.6-3.84,4.6-5.04,2-1.2,4.37-1.8,7.08-1.8,3.9,0,6.93,1.2,9.07,3.61,2.14,2.4,3.22,5.68,3.22,9.83ZM150.26,21.85h12.6c-.03-2.27-.56-4.05-1.57-5.36-1.01-1.31-2.49-1.96-4.44-1.96-1.81,0-3.3.63-4.47,1.88s-1.87,3.07-2.12,5.44Z"/>
      <path class="cls-2" d="M191.93,17.83c-.38-.45-.96-.88-1.73-1.28-.77-.4-1.62-.6-2.56-.6-1.39,0-2.65.49-3.76,1.46-1.12.98-2,2.4-2.64,4.26-.65,1.86-.97,4.1-.97,6.72v8.47h-6.48V10.4h5.33l.58,8.26h.99c.38-2.61,1.26-4.75,2.64-6.4,1.38-1.66,3.22-2.48,5.52-2.48,1.74,0,3.26.49,4.55,1.46l-1.46,6.59Z"/>
      <path class="cls-1" d="M236.05,20.21c2.09,1.34,3.14,3.58,3.14,6.72s-1.12,5.71-3.35,7.4-5.14,2.54-8.73,2.54h-17.98V.78h16.31c3.31,0,5.83.66,7.55,1.99,1.73,1.32,2.59,3.26,2.59,5.8,0,2.37-.75,4.27-2.25,5.7-1.5,1.43-3.55,2.37-6.17,2.82v1.1c3.83,0,6.8.67,8.89,2.01ZM215.92,15.79h7.32c1.88,0,3.29-.49,4.23-1.46.94-.98,1.41-2.28,1.41-3.92,0-1.53-.44-2.63-1.31-3.29-.87-.66-2.3-.99-4.29-.99h-7.37v9.67ZM230.06,30.03c1.24-.89,1.86-2.29,1.86-4.21,0-1.81-.56-3.11-1.67-3.9-1.12-.78-2.86-1.18-5.23-1.18h-9.1v10.61h8.52c2.51,0,4.38-.44,5.62-1.33Z"/>
      <path class="cls-1" d="M241.8,24c0-3.07.58-5.67,1.75-7.82,1.17-2.14,2.79-3.76,4.86-4.84,2.07-1.08,4.45-1.62,7.14-1.62s4.97.52,7.06,1.57,3.74,2.59,4.94,4.63c1.2,2.04,1.8,4.5,1.8,7.4,0,4.64-1.24,8.16-3.71,10.59-2.47,2.42-5.84,3.63-10.09,3.63s-7.48-1.17-9.99-3.5c-2.51-2.33-3.76-5.68-3.76-10.04ZM262.66,23.58c0-2.93-.64-5.17-1.91-6.72-1.27-1.55-3.01-2.33-5.2-2.33s-3.87.78-5.12,2.33c-1.25,1.55-1.88,3.79-1.88,6.72s.62,5.02,1.86,6.59c1.24,1.57,2.95,2.35,5.15,2.35s3.97-.78,5.23-2.35c1.25-1.57,1.88-3.76,1.88-6.59Z"/>
      <path class="cls-1" d="M298.11,36.86h-7.32l-4.08-7.63-.73-1.46c-.73-1.5-1.19-2.44-1.36-2.82h-.94l-1.31,2.61c-.42.7-.71,1.25-.89,1.67l-4.18,7.63h-7.06l8.63-14.06-8.05-12.39h7.32l3.45,5.8c.1.21.42.75.94,1.62l1.31,2.46h1.1c.24-.56.75-1.46,1.52-2.72l.73-1.31,3.29-5.86h7.06l-7.89,12.29,8.47,14.17Z"/>
    </g>
  </g>
</svg>