<?xml version="1.0" encoding="UTF-8"?>
<svg id="Layer_2" data-name="Layer 2" xmlns="http://www.w3.org/2000/svg" viewBox="0 0 355.09 43.7">
  <defs>
    <style>
      .cls-1 {
        fill: none;
        stroke: #f15634;
        stroke-miterlimit: 10;
        stroke-width: .88px;
      }
    </style>
  </defs>
  <g id="Layer_1-2" data-name="Layer 1">
    <g>
      <path class="cls-1" d="M8.05,1.2v40.42H.44V1.2h7.62Z"/>
      <path class="cls-1" d="M42.85,29.11c-1.64,1.66-3.89,2.49-6.74,2.49-5.43,0-9.02-2.79-10.78-8.38h-1.11l-.76,7.62h-5.97V1.2h7.26v10.78c0,4.69.71,8.07,2.14,10.16,1.43,2.09,3.35,3.13,5.77,3.13,1.76,0,3.09-.53,4.01-1.58.92-1.05,1.38-2.54,1.38-4.45V1.2h7.26v20.85c0,3.05-.82,5.4-2.46,7.06Z"/>
      <path class="cls-1" d="M75.07,5.65l-2.34,4.22c-.66-.94-1.52-1.78-2.58-2.52-1.05-.74-2.21-1.11-3.46-1.11s-2.24.27-2.96.82-1.08,1.52-1.08,2.93v15.58h10.72v5.27h-10.72v8.44h-4.04l-2.46-8.44h-4.57v-5.27h3.75V8.64c0-2.62.79-4.64,2.37-6.06s3.9-2.14,6.94-2.14c2.58,0,4.75.53,6.5,1.58,1.76,1.05,3.07,2.26,3.93,3.63Z"/>
      <path class="cls-1" d="M102.36,29.91c-1.44,1.09-3.14,1.64-5.1,1.64-2.58,0-4.64-.93-6.18-2.78-1.54-1.86-2.53-4.25-2.96-7.18h-1.11l-.64,9.26h-5.97V1.2h7.26v9.49c0,2.93.36,5.44,1.08,7.53.72,2.09,1.71,3.68,2.96,4.77,1.25,1.09,2.66,1.64,4.22,1.64,1.05,0,2.01-.22,2.87-.67.86-.45,1.5-.93,1.93-1.43l1.64,7.38Z"/>
      <path class="cls-1" d="M109.04,4.36c2.81-2.62,6.54-3.93,11.19-3.93s8.53,1.36,11.31,4.07c2.77,2.71,4.16,6.67,4.16,11.86,0,3.24-.67,6.01-2.02,8.29-1.35,2.28-3.19,4.01-5.54,5.18-2.34,1.17-4.98,1.76-7.91,1.76s-5.67-.61-8-1.82c-2.32-1.21-4.14-3.02-5.45-5.42-1.31-2.4-1.96-5.32-1.96-8.76,0-4.88,1.41-8.63,4.22-11.25ZM126.09,8.7c-1.41-1.76-3.36-2.64-5.86-2.64s-4.38.88-5.77,2.64c-1.39,1.76-2.08,4.22-2.08,7.38s.7,5.79,2.11,7.53c1.41,1.74,3.32,2.61,5.74,2.61s4.4-.87,5.83-2.61c1.43-1.74,2.14-4.25,2.14-7.53s-.7-5.62-2.11-7.38Z"/>
      <path class="cls-1" d="M165.1,42.5v-7.97c0-1.99.14-4.63.41-7.91.04-.59.08-1.16.12-1.73.04-.57.06-1.12.06-1.67h-1.23c-1.48,5.58-5.02,8.38-10.6,8.38-2.34,0-4.51-.59-6.5-1.79-1.99-1.19-3.59-2.97-4.8-5.33-1.21-2.36-1.82-5.24-1.82-8.64s.57-6.13,1.7-8.44c1.13-2.3,2.69-4.04,4.69-5.21s4.28-1.76,6.85-1.76c5.58,0,9.12,2.77,10.6,8.32h1.17l.7-7.56h5.92v41.3h-7.26ZM161.76,8.67c-1.41-1.78-3.28-2.67-5.62-2.67-2.5,0-4.42.84-5.77,2.52-1.35,1.68-2.02,4.12-2.02,7.32s.7,5.76,2.11,7.56c1.41,1.8,3.28,2.69,5.62,2.69s4.16-.92,5.57-2.75c1.41-1.84,2.15-4.22,2.23-7.15,0-3.24-.7-5.75-2.11-7.53Z"/>
      <path class="cls-1" d="M200.83,30.84v-10.95c0-2.62-.32-4.95-.97-7-.64-2.05-1.55-3.65-2.72-4.8-1.17-1.15-2.54-1.73-4.1-1.73s-2.87.51-3.81,1.52c-.94,1.01-1.41,2.46-1.41,4.33v18.63h-7.26V9.99c0-3.05.87-5.4,2.61-7.06,1.74-1.66,4.09-2.49,7.06-2.49,2.58,0,4.73.76,6.44,2.28s2.97,3.53,3.75,6.03h1.17l.59-7.56h5.92v29.64h-7.26Z"/>
      <path class="cls-1" d="M218.46,4.36c2.69-2.62,6.33-3.93,10.9-3.93,3.67,0,6.64.82,8.9,2.46,2.26,1.64,3.71,3.87,4.33,6.68l-5.92,1.46c-.55-1.52-1.43-2.73-2.64-3.63s-2.64-1.35-4.28-1.35c-2.42,0-4.32.86-5.71,2.58-1.39,1.72-2.08,4.16-2.08,7.32,0,3.32.71,5.86,2.14,7.62s3.31,2.64,5.65,2.64c3.87,0,6.05-1.8,6.56-5.39l5.98,1.46c-.31,2.93-1.56,5.21-3.75,6.85-2.19,1.64-5.19,2.46-9.02,2.46-2.93,0-5.53-.59-7.79-1.79-2.27-1.19-4.05-2.96-5.36-5.3-1.31-2.34-1.96-5.17-1.96-8.49,0-5.16,1.35-9.04,4.04-11.66Z"/>
      <path class="cls-1" d="M270.3,5.65l-2.34,4.22c-.66-.94-1.52-1.78-2.58-2.52-1.05-.74-2.21-1.11-3.46-1.11s-2.24.27-2.96.82c-.72.55-1.08,1.52-1.08,2.93v15.58h10.72v5.27h-10.72v8.44h-4.04l-2.46-8.44h-4.57v-5.27h3.75V8.64c0-2.62.79-4.64,2.37-6.06,1.58-1.43,3.9-2.14,6.94-2.14,2.58,0,4.75.53,6.5,1.58,1.76,1.05,3.06,2.26,3.92,3.63Z"/>
      <path class="cls-1" d="M275.83,36.52c.76-.7,1.92-1.05,3.49-1.05s2.66.35,3.43,1.05c.76.7,1.14,1.66,1.14,2.87,0,1.13-.38,2.06-1.14,2.78-.76.72-1.9,1.08-3.43,1.08s-2.72-.35-3.49-1.05-1.14-1.64-1.14-2.81.38-2.17,1.14-2.87ZM282.89,1.2v29.64h-7.26V1.2h7.26Z"/>
      <path class="cls-1" d="M293.44,4.36c2.81-2.62,6.54-3.93,11.19-3.93s8.53,1.36,11.31,4.07c2.77,2.71,4.16,6.67,4.16,11.86,0,3.24-.67,6.01-2.02,8.29-1.35,2.28-3.19,4.01-5.54,5.18s-4.98,1.76-7.91,1.76-5.67-.61-8-1.82c-2.32-1.21-4.14-3.02-5.45-5.42-1.31-2.4-1.96-5.32-1.96-8.76,0-4.88,1.41-8.63,4.22-11.25ZM310.48,8.7c-1.41-1.76-3.36-2.64-5.86-2.64s-4.38.88-5.77,2.64c-1.39,1.76-2.08,4.22-2.08,7.38s.7,5.79,2.11,7.53c1.41,1.74,3.32,2.61,5.74,2.61s4.4-.87,5.83-2.61c1.43-1.74,2.14-4.25,2.14-7.53s-.7-5.62-2.11-7.38Z"/>
      <path class="cls-1" d="M352.19,29.11c-1.64,1.66-3.89,2.49-6.74,2.49-5.43,0-9.02-2.79-10.78-8.38h-1.11l-.76,7.62h-5.98V1.2h7.26v10.78c0,4.69.71,8.07,2.14,10.16s3.35,3.13,5.77,3.13c1.76,0,3.1-.53,4.01-1.58.92-1.05,1.38-2.54,1.38-4.45V1.2h7.26v20.85c0,3.05-.82,5.4-2.46,7.06Z"/>
    </g>
  </g>
</svg>