<?xml version="1.0" encoding="UTF-8"?>
<svg id="Layer_2" data-name="Layer 2" xmlns="http://www.w3.org/2000/svg" viewBox="0 0 61.65 61.65">
  <defs>
    <style>
      .cls-1 {
        fill: #fff;
      }

      .cls-1, .cls-2 {
        stroke-width: 0px;
      }

      .cls-2 {
        fill: #000;
        fill-rule: evenodd;
      }
    </style>
  </defs>
  <g id="Layer_1-2" data-name="Layer 1">
    <g>
      <circle class="cls-1" cx="30.83" cy="30.83" r="30.83"/>
      <path class="cls-2" d="M13.95,30.5c8.99-3.92,14.98-6.5,17.98-7.74,8.56-3.56,10.34-4.18,11.5-4.2.26,0,.83.06,1.19.36.55.44.55,1.41.49,2.05-.46,4.87-2.47,16.7-3.49,22.16-.43,2.31-1.28,3.08-2.11,3.16-1.79.16-3.15-1.18-4.88-2.32-2.71-1.78-4.25-2.89-6.88-4.62-3.04-2.01-1.07-3.11.66-4.91.45-.47,8.34-7.65,8.49-8.3.02-.08.04-.38-.14-.54s-.45-.11-.64-.06c-.27.06-4.61,2.93-13,8.59-1.23.84-2.34,1.26-3.34,1.23-1.1-.02-3.22-.62-4.79-1.13-1.93-.63-3.46-.96-3.33-2.03.07-.56.83-1.12,2.29-1.7h0Z"/>
    </g>
  </g>
</svg>