<?xml version="1.0" encoding="UTF-8"?>
<svg id="Layer_2" data-name="Layer 2" xmlns="http://www.w3.org/2000/svg" viewBox="0 0 61.65 61.65">
  <defs>
    <style>
      .cls-1 {
        fill: #fff;
        stroke-width: 0px;
      }
    </style>
  </defs>
  <g id="Layer_1-2" data-name="Layer 1">
    <path class="cls-1" d="M52.62,9.03C46.8,3.21,39.06,0,30.83,0S14.85,3.21,9.03,9.03C3.21,14.85,0,22.59,0,30.83s3.21,15.98,9.03,21.8c5.82,5.82,13.56,9.03,21.8,9.03s15.98-3.21,21.8-9.03c5.82-5.82,9.03-13.56,9.03-21.8s-3.21-15.98-9.03-21.8h0ZM11.59,11.59c2.71-2.71,5.89-4.78,9.36-6.13-.92,1.15-1.79,2.48-2.58,3.97-.92,1.73-1.71,3.63-2.38,5.66-2.29-.38-4.41-.85-6.31-1.4.6-.74,1.23-1.44,1.9-2.11ZM7.49,16.81c2.22.71,4.75,1.31,7.52,1.78-.77,3.27-1.22,6.79-1.33,10.43H3.68c.28-4.36,1.59-8.53,3.82-12.21h0ZM7.3,44.51c-2.1-3.6-3.34-7.64-3.62-11.88h10.01c.12,3.53.56,6.95,1.31,10.14-2.82.46-5.42,1.04-7.7,1.74h0ZM11.59,50.07c-.76-.76-1.48-1.57-2.15-2.41,1.97-.55,4.16-1.01,6.53-1.38.67,2.06,1.47,3.99,2.4,5.74.86,1.62,1.81,3.05,2.83,4.28-3.57-1.35-6.84-3.45-9.61-6.22h0ZM29.02,57.57c-2.75-.77-5.34-3.28-7.46-7.25-.74-1.39-1.39-2.91-1.94-4.53,2.98-.33,6.15-.52,9.4-.57v12.35ZM29.02,41.61c-3.61.05-7.13.28-10.43.66-.73-3.01-1.16-6.26-1.28-9.64h11.71v8.97h0ZM29.02,29.02h-11.72c.11-3.47.55-6.82,1.3-9.9,3.28.41,6.79.66,10.41.73v9.17ZM29.02,16.23c-3.27-.07-6.43-.28-9.39-.63.55-1.6,1.2-3.1,1.93-4.48,2.11-3.98,4.71-6.49,7.46-7.25v12.36ZM54.27,17c2.15,3.64,3.42,7.73,3.7,12.02h-10.01c-.11-3.59-.55-7.07-1.31-10.31,2.79-.45,5.35-1.02,7.61-1.7h0ZM50.07,11.59c.72.72,1.4,1.48,2.04,2.28-1.94.53-4.09.98-6.41,1.34-.67-2.07-1.47-4.01-2.41-5.77-.79-1.49-1.66-2.82-2.58-3.97,3.47,1.35,6.65,3.42,9.36,6.13ZM32.63,32.63h11.71c-.12,3.4-.56,6.68-1.3,9.71-3.27-.41-6.79-.65-10.41-.72v-8.98ZM32.63,29.02v-9.16c3.61-.05,7.14-.27,10.43-.66.74,3.06,1.17,6.37,1.28,9.81h-11.72ZM32.63,3.87h0c2.75.77,5.34,3.28,7.46,7.25.74,1.4,1.4,2.93,1.96,4.56-2.98.33-6.15.52-9.41.56V3.87ZM32.63,57.57v-12.34c3.27.06,6.43.28,9.38.62-.55,1.59-1.19,3.09-1.92,4.46-2.11,3.98-4.71,6.49-7.46,7.25h0ZM50.07,50.07c-2.78,2.78-6.05,4.88-9.61,6.22,1.02-1.22,1.97-2.65,2.83-4.28.92-1.73,1.71-3.62,2.37-5.65,2.34.39,4.51.87,6.44,1.43-.64.79-1.31,1.55-2.03,2.27h0ZM54.26,44.68c-2.24-.72-4.82-1.33-7.63-1.81.76-3.21,1.21-6.67,1.33-10.23h10.01c-.28,4.3-1.56,8.4-3.72,12.04h0Z"/>
  </g>
</svg>